<svg height="512pt" viewBox="0 -20 512 512" width="512pt" xmlns="http://www.w3.org/2000/svg"><path d="m491.878906 0h-471.757812c-11.09375 0-20.121094 9.046875-20.121094 20.160156v274.257813c0 11.113281 9.027344 20.160156 20.121094 20.160156h471.757812c11.09375 0 20.121094-9.046875 20.121094-20.160156v-274.257813c0-11.113281-9.027344-20.160156-20.121094-20.160156zm-311.640625 225c5.425781 6.476562 4.578125 16.125-1.875 21.550781-6.445312 5.421875-16.089843 4.589844-21.503906-1.878906l-64.964844-77.550781c-4.773437-5.679688-4.773437-13.980469 0-19.660156l64.964844-77.554688c5.414063-6.464844 15.042969-7.3125 21.503906-1.875 6.453125 5.421875 7.300781 15.082031 1.875 21.546875l-56.722656 67.710937zm120.613281-139.625-61.320312 155.097656c-3.136719 7.90625-12.042969 11.683594-19.816406 8.585938-7.84375-3.109375-11.683594-12.003906-8.566406-19.855469l61.320312-155.097656c3.101562-7.851563 11.976562-11.695313 19.816406-8.585938 7.84375 3.113281 11.683594 12.003907 8.566406 19.855469zm119.253907 81.746094-64.964844 77.550781c-5.410156 6.464844-15.054687 7.304687-21.503906 1.878906-6.453125-5.425781-7.300781-15.074219-1.875-21.550781l56.722656-67.710938-56.722656-67.710937c-5.425781-6.464844-4.578125-16.125 1.875-21.546875 6.460937-5.4375 16.089843-4.589844 21.503906 1.875l64.964844 77.554688c4.773437 5.679687 4.773437 13.980468 0 19.660156zm0 0"/><path d="m361.554688 441.414062h-57.6875l-5.589844-96.242187h-84.554688l-5.589844 96.242187h-57.6875c-8.433593 0-15.269531 6.847657-15.269531 15.296876 0 8.449218 6.835938 15.296874 15.269531 15.296874h211.109376c8.433593 0 15.269531-6.847656 15.269531-15.296874 0-8.449219-6.835938-15.296876-15.269531-15.296876zm0 0"/></svg>